<svg width="128" height="128" viewBox="0 0 128 128" fill="none" xmlns="http://www.w3.org/2000/svg">
	<path
		d="M128 64C128 28.6538 99.3462 0 64 0C28.6538 0 0 28.6538 0 64C0 99.3462 28.6538 128 64 128C99.3462 128 128 99.3462 128 64Z"
		fill="#F0EEE6" />
	<path
		d="M104 64C104 67.0371 103.111 69.7037 101.333 72C99.6294 74.2963 97.4444 75.8518 94.7778 76.6667C96.0372 79.1852 96.4817 81.8889 96.1111 84.7778C95.7406 87.5928 94.4817 90.0739 92.3333 92.2222C91 93.5556 89.5183 94.5556 87.8889 95.2222C86.2594 95.815 84.5928 96.1111 82.8889 96.1111C80.6667 96.1111 78.6296 95.6294 76.7778 94.6667C75.8889 97.4072 74.2963 99.6667 72 101.444C69.7037 103.148 67.0371 104 64 104C61.0371 104 58.3704 103.148 56 101.444C53.7037 99.6667 52.1482 97.4444 51.3333 94.7778C49.4074 95.7406 47.3704 96.2222 45.2222 96.2222C43.5185 96.2222 41.8518 95.9261 40.2222 95.3333C38.5926 94.6667 37.1111 93.6667 35.7778 92.3333C33.6296 90.185 32.3704 87.7039 32 84.8889C31.6296 82 32.0741 79.2961 33.3333 76.7778C30.5926 75.8889 28.3333 74.2963 26.5556 72C24.8519 69.7037 24 67.0371 24 64C24 60.9629 24.8519 58.2963 26.5556 56C28.3333 53.7037 30.5926 52.1111 33.3333 51.2222C32 48.7037 31.5185 46.0371 31.8889 43.2222C32.3333 40.3333 33.6296 37.8518 35.7778 35.7778C38.3704 33.1111 41.4815 31.7778 45.1111 31.7778C47.2593 31.7778 49.2963 32.2963 51.2222 33.3333C52.1111 30.5926 53.7037 28.3704 56 26.6667C58.2963 24.8889 60.9629 24 64 24C67.0371 24 69.7037 24.8889 72 26.6667C74.2963 28.3704 75.8518 30.5926 76.6667 33.3333C78.5185 32.3704 80.5928 31.8889 82.8889 31.8889C84.5928 31.8889 86.2594 32.2222 87.8889 32.8889C89.5183 33.4815 90.9628 34.4444 92.2222 35.7778C94.3706 37.9259 95.6295 40.4444 96 43.3333C96.3706 46.1482 95.9261 48.8148 94.6667 51.3333C97.4072 52.1482 99.6294 53.7037 101.333 56C103.111 58.2963 104 60.9629 104 64Z"
		fill="#FA6642" />
</svg>